<svg xmlns:xlink="http://www.w3.org/1999/xlink" xmlns="http://www.w3.org/2000/svg" fill="none" x="0" y="0" viewBox="0 0 239 48" preserveAspectRatio="xMinYMin meet" width="239"  height="48" ><path d="M63.56 33.832V11.656h14.848v4.192h-9.856v4.64h8.768v4.192h-8.768v9.152H63.56ZM95.358 33.256c-.811.235-1.856.448-3.136.64-1.28.213-2.624.32-4.032.32-1.43 0-2.624-.192-3.584-.576-.94-.384-1.686-.917-2.24-1.6-.555-.704-.95-1.536-1.184-2.496-.235-.96-.352-2.016-.352-3.168V17h4.768v8.8c0 1.536.202 2.645.608 3.328.405.683 1.162 1.024 2.272 1.024.34 0 .704-.01 1.088-.032.384-.043.725-.085 1.024-.128V17h4.768v16.256ZM106.553 34.152c-1.386-.021-2.517-.17-3.392-.448-.853-.277-1.536-.661-2.048-1.152a4.188 4.188 0 0 1-1.024-1.824c-.17-.725-.256-1.536-.256-2.432V9.768L104.601 9v18.336c0 .427.032.81.096 1.152.064.341.182.63.352.864.192.235.459.427.8.576.342.15.8.245 1.376.288l-.672 3.936ZM116.678 34.152c-1.386-.021-2.517-.17-3.392-.448-.853-.277-1.536-.661-2.048-1.152a4.188 4.188 0 0 1-1.024-1.824 10.676 10.676 0 0 1-.256-2.432V9.768L114.726 9v18.336c0 .427.032.81.096 1.152.064.341.182.63.352.864.192.235.459.427.8.576.342.15.8.245 1.376.288l-.672 3.936ZM134.684 17a147.925 147.925 0 0 1-3.008 9.12 110.173 110.173 0 0 1-3.424 8.256c-.448.96-.896 1.77-1.344 2.432-.448.683-.939 1.237-1.472 1.664a4.848 4.848 0 0 1-1.824.96c-.662.213-1.44.32-2.336.32-.747 0-1.44-.075-2.08-.224-.619-.128-1.131-.277-1.536-.448l.832-3.808c.49.17.928.288 1.312.352a7.39 7.39 0 0 0 1.216.096c.853 0 1.504-.235 1.952-.704.469-.448.864-1.077 1.184-1.888-1.088-2.133-2.176-4.523-3.264-7.168-1.088-2.667-2.112-5.653-3.072-8.96h5.056c.213.832.458 1.739.736 2.72.298.96.608 1.941.928 2.944.32.981.64 1.941.96 2.88.341.939.661 1.792.96 2.56.277-.768.565-1.621.864-2.56.298-.939.586-1.899.864-2.88.298-1.003.576-1.984.832-2.944.277-.981.522-1.888.736-2.72h4.928ZM147.672 34.28c-3.606 0-6.358-1.003-8.256-3.008-1.878-2.005-2.816-4.853-2.816-8.544 0-1.835.288-3.467.864-4.896.576-1.45 1.365-2.667 2.368-3.648a9.787 9.787 0 0 1 3.584-2.272c1.386-.512 2.89-.768 4.512-.768.938 0 1.792.075 2.56.224.768.128 1.44.288 2.016.48.576.17 1.056.352 1.44.544.384.192.661.341.832.448l-1.44 4.032c-.683-.363-1.483-.672-2.4-.928-.896-.256-1.92-.384-3.072-.384-.768 0-1.526.128-2.272.384a5.17 5.17 0 0 0-1.952 1.248c-.555.555-1.003 1.28-1.344 2.176-.342.896-.512 1.984-.512 3.264 0 1.024.106 1.984.32 2.88.234.875.597 1.632 1.088 2.272.512.64 1.173 1.152 1.984 1.536.81.363 1.792.544 2.944.544.725 0 1.376-.043 1.952-.128a18.19 18.19 0 0 0 1.536-.288 9.486 9.486 0 0 0 1.184-.416c.341-.15.65-.288.928-.416l1.376 4c-.704.427-1.696.81-2.976 1.152-1.28.341-2.763.512-4.448.512ZM168.134 21.224a25.295 25.295 0 0 0-1.504-.32 8.548 8.548 0 0 0-1.856-.192 7.51 7.51 0 0 0-1.088.096 5.385 5.385 0 0 0-.928.16v12.864h-4.768V17.896a26.767 26.767 0 0 1 3.008-.832c1.173-.277 2.474-.416 3.904-.416.256 0 .565.021.928.064.362.021.725.064 1.088.128.362.043.725.107 1.088.192.362.064.672.15.928.256l-.8 3.936ZM187.434 17a147.925 147.925 0 0 1-3.008 9.12 110.173 110.173 0 0 1-3.424 8.256c-.448.96-.896 1.77-1.344 2.432-.448.683-.939 1.237-1.472 1.664a4.848 4.848 0 0 1-1.824.96c-.662.213-1.44.32-2.336.32-.747 0-1.44-.075-2.08-.224-.619-.128-1.131-.277-1.536-.448l.832-3.808c.49.17.928.288 1.312.352a7.39 7.39 0 0 0 1.216.096c.853 0 1.504-.235 1.952-.704.469-.448.864-1.077 1.184-1.888-1.088-2.133-2.176-4.523-3.264-7.168-1.088-2.667-2.112-5.653-3.072-8.96h5.056c.213.832.458 1.739.736 2.72.298.96.608 1.941.928 2.944.32.981.64 1.941.96 2.88.341.939.661 1.792.96 2.56.277-.768.565-1.621.864-2.56.298-.939.586-1.899.864-2.88.298-1.003.576-1.984.832-2.944.277-.981.522-1.888.736-2.72h4.928ZM200.774 25.544c0-1.472-.331-2.645-.992-3.52-.662-.896-1.643-1.344-2.944-1.344-.427 0-.822.021-1.184.064a7.65 7.65 0 0 0-.896.096v8.608c.298.192.682.352 1.152.48.49.128.981.192 1.472.192 2.261 0 3.392-1.525 3.392-4.576Zm4.864-.128c0 1.301-.16 2.485-.48 3.552-.32 1.067-.79 1.984-1.408 2.752a6.362 6.362 0 0 1-2.304 1.792c-.918.427-1.974.64-3.168.64-.662 0-1.28-.064-1.856-.192a8.922 8.922 0 0 1-1.664-.544v6.336h-4.768V17.576c.426-.128.917-.245 1.472-.352.554-.128 1.13-.235 1.728-.32a27.33 27.33 0 0 1 1.856-.192c.64-.064 1.248-.096 1.824-.096 1.386 0 2.624.213 3.712.64 1.088.405 2.005.992 2.752 1.76.746.747 1.312 1.664 1.696 2.752.405 1.088.608 2.304.608 3.648ZM209.142 12.808l4.768-.768V17h5.728v3.968h-5.728v5.92c0 1.003.171 1.803.512 2.4.363.597 1.077.896 2.144.896.512 0 1.035-.043 1.568-.128a9 9 0 0 0 1.504-.416l.672 3.712c-.576.235-1.216.437-1.92.608-.704.17-1.568.256-2.592.256-1.301 0-2.379-.17-3.232-.512-.853-.363-1.536-.853-2.048-1.472-.512-.64-.875-1.408-1.088-2.304-.192-.896-.288-1.888-.288-2.976V12.808ZM238.64 25.384c0 1.323-.192 2.539-.576 3.648-.384 1.088-.939 2.027-1.664 2.816a7.564 7.564 0 0 1-2.624 1.792c-1.003.427-2.134.64-3.392.64-1.238 0-2.368-.213-3.392-.64a7.624 7.624 0 0 1-2.592-1.792c-.726-.79-1.291-1.728-1.696-2.816-.406-1.11-.608-2.325-.608-3.648s.202-2.528.608-3.616c.426-1.088 1.002-2.016 1.728-2.784a7.966 7.966 0 0 1 2.624-1.792c1.024-.427 2.133-.64 3.328-.64 1.216 0 2.325.213 3.328.64a7.564 7.564 0 0 1 2.624 1.792c.725.768 1.29 1.696 1.696 2.784.405 1.088.608 2.293.608 3.616Zm-4.864 0c0-1.472-.299-2.624-.896-3.456-.576-.853-1.408-1.28-2.496-1.28s-1.931.427-2.528 1.28c-.598.832-.896 1.984-.896 3.456s.298 2.645.896 3.52c.597.853 1.44 1.28 2.528 1.28s1.92-.427 2.496-1.28c.597-.875.896-2.048.896-3.52Z" fill="#000"></path><path fill-rule="evenodd" clip-rule="evenodd" d="M10 10h28v28H10v-9h18V19H10v-9Zm0 38V38H0V0h38v10h10v38H10Z" fill="#05D1D1"></path><path d="M38 10h10v38H38V10Z" fill="#FC2D84"></path><path d="M10 38h38v10H10Z" fill="#FC2D84" style="" stroke-width="1.16496px"></path></svg>